<svg version="1.2" xmlns="http://www.w3.org/2000/svg" viewBox="0 0 1059 741" width="1059" height="741">
	<title>Laser_Warning_Symbol_-_USA-svg</title>
	<style>
		.s0 { fill: #d92f27 } 
	</style>
	<path id="Layer" class="s0" d="m1997.9 353.5h-1503.4l113.3-30.4 1.4-0.4-8.3-30.9-117 31.3 215-124.2-16-27.7-215 124.2 84.6-84.7 1-1-22.6-22.7-85.7 85.7 124.2-215.1-27.8-16-124.1 215.1 31-115.6 0.3-1.4-30.9-8.3-31.3 117v-248.4h-32.1v248.4l-31.3-117-31 8.3 31.4 117-123.4-213.9-0.8-1.2-27.7 16 124.1 215.1-84.6-84.6-1-1.1-22.6 22.7 85.6 85.7-215-124.2-16 27.7 215 124.2-115.6-30.9-1.4-0.4-8.3 30.9 114.7 30.8h-246.6v33.3h246.6l-113.3 30.3-1.4 0.4 8.3 31 117-31.4-213.8 123.5-1.2 0.7 16 27.8 215-124.2-85.6 85.6 22.6 22.7 85.6-85.7-123.4 213.9-0.7 1.3 27.7 16 124.2-215.2-31.4 117.1 31 8.3 31.3-117v248.4h32.1v-248.4l30.9 115.6 0.4 1.4 30.9-8.3-31.3-117.1 124.1 215.2 27.8-16-124.1-215.2 84.6 84.7 1 1 22.6-22.7-85.6-85.6 215 124.2 16-27.8-215-124.2 115.6 31 1.4 0.4 8.3-31-114.7-30.7h1503.4z"/>
</svg>